<?xml version="1.0" encoding="UTF-8"?>
<!-- Created with Inkscape (http://www.inkscape.org/) -->
<svg width="210mm" height="297mm" version="1.1" viewBox="0 0 210 297" xmlns="http://www.w3.org/2000/svg" xmlns:cc="http://creativecommons.org/ns#" xmlns:dc="http://purl.org/dc/elements/1.1/" xmlns:rdf="http://www.w3.org/1999/02/22-rdf-syntax-ns#">
 <metadata>
  <rdf:RDF>
   <cc:Work rdf:about="">
    <dc:format>image/svg+xml</dc:format>
    <dc:type rdf:resource="http://purl.org/dc/dcmitype/StillImage"/>
    <dc:title/>
   </cc:Work>
  </rdf:RDF>
 </metadata>
 <g stroke-width=".26458">
  <path d="m21.337 135.98v-25.929h167.48v51.858h-167.48z" fill="#fefefe"/>
  <path d="m124.18 158.04c-0.1037-0.10369-0.18854-1.7576-0.18854-3.6753 0-4.2559 0.10584-4.4237 2.8896-4.581 3.3198-0.18758 4.7251 1.4691 3.7118 4.3759-0.33658 0.96548-1.1345 1.361-3.1761 1.5744l-1.5464 0.16162-0.0796 1.0882c-0.069 0.94282-0.16928 1.0986-0.75094 1.1665-0.36925 0.0431-0.75621-7e-3 -0.8599-0.11025zm4.2625-3.431c0.53066-0.37168 0.59102-0.60857 0.5219-2.0481-0.0713-1.4858-0.14248-1.6585-0.81519-1.9799-0.43409-0.20738-1.0594-0.28129-1.5214-0.17983l-0.78432 0.17227v4.4559h0.99946c0.5497 0 1.2695-0.18913 1.5995-0.4203zm4.5457 3.2637c-0.73028-0.26042-0.99767-0.55159-1.2698-1.3827-0.39062-1.193-0.20755-2.857 0.37883-3.4434 0.59294-0.59294 2.4746-0.99984 3.7977-0.82125 1.731 0.23366 2.4983 0.89378 2.5976 2.235l0.0814 1.098h-2.661c-2.4518 0-2.661 0.0401-2.661 0.51027 0 0.28065 0.1871 0.69737 0.41577 0.92604 0.55535 0.55535 2.7171 0.54814 3.5164-0.0117 0.4159-0.2913 0.69654-0.34129 0.88091-0.15692s0.0405 0.42129-0.45148 0.74368c-0.89674 0.58756-3.3724 0.74971-4.6252 0.30292zm3.9678-3.5049c0-0.68185-1.0084-1.4552-1.8974-1.4552-0.95525 0-1.8068 0.64281-1.8068 1.3639 0 0.42799 0.22825 0.48815 1.8521 0.48815 1.4699 0 1.8521-0.0819 1.8521-0.39687zm2.6458 0.96403v-2.8724l1.8714-0.17393c1.0293-0.0957 1.9818-0.10574 2.1167-0.0224 0.49176 0.30392 0.22681 0.64949-0.49796 0.64949-1.4147 0-1.7171 0.4916-1.8491 3.0063l-0.11995 2.2854h-1.5211zm6.4141 2.4847c-1.082-0.47976-1.387-1.2748-1.387-3.615v-1.8516l1.7198 0.1658 0.0782 2.1041c0.043 1.1573 0.20644 2.2586 0.36313 2.4474 0.29194 0.35176 2.2265 0.47049 2.9766 0.18267 0.33821-0.12979 0.41851-0.61204 0.41851-2.5135v-2.353h1.5875l-2e-3 2.8443-2e-3 2.8443-2.4454 0.0634c-1.6793 0.0435-2.7154-0.0564-3.3072-0.3188zm11.908-7e-3c-0.47295-0.20556-0.8599-0.49153-0.8599-0.63549 0-0.50149 0.53228-0.58538 1.1167-0.176 0.69551 0.48715 2.8738 0.54913 3.3283 0.0947 0.51184-0.51184 0.36853-1.4903-0.27781-1.8967-0.32742-0.2059-1.0605-0.53607-1.629-0.73371-3.0902-1.0743-3.4496-4.0669-0.55375-4.6102 1.2811-0.24033 3.4551-0.0119 3.9724 0.41746 0.67817 0.56283-0.0438 0.76053-1.2543 0.34348-1.165-0.40139-2.3677-0.2669-2.8541 0.31916-0.61654 0.74289-0.13956 1.3132 1.9879 2.377 2.4368 1.2184 3.0464 2.0209 2.513 3.3085-0.59459 1.4355-3.4852 2.063-5.4896 1.1918zm6.737 0.23022c-0.1037-0.10371-0.18854-1.822-0.18854-3.8185v-3.6299l0.89989-0.42702c1.1126-0.52799 3.3148-0.55244 4.517-0.0502 1.1891 0.49683 1.5046 1.6737 1.4054 5.2422l-0.0754 2.7153h-0.79375c-0.78888 0-0.79424-0.0102-0.87252-1.6536l-0.0788-1.6536h-3.1245l-0.0788 1.6536c-0.0738 1.5491-0.12122 1.6586-0.75013 1.7319-0.36925 0.0431-0.75621-7e-3 -0.8599-0.11025zm4.8386-5.3731c0-1.6551-0.4507-2.1356-2.0033-2.1356h-1.1717v3.4396h3.175zm4.2419 5.1187c-0.50463-0.21889-1.0088-0.54165-1.1204-0.71725-0.29632-0.46623-0.25627-5.6935 0.048-6.262 0.3503-0.65454 1.6448-1.0688 3.3399-1.0688 1.3743 0 2.7511 0.41067 2.7511 0.82061 0 0.36862-0.54394 0.55445-0.87148 0.29773-0.89448-0.70106-3.1674-0.52378-3.6831 0.28728-0.10988 0.17279-0.2016 1.4566-0.20383 2.8528-3e-3 2.1267 0.0745 2.6097 0.47981 2.9766 0.62088 0.5619 2.6393 0.57702 3.4265 0.0257 0.5848-0.40962 1.1167-0.32543 1.1167 0.17673 0 0.44736-1.7721 1.0297-3.1004 1.0189-0.6959-6e-3 -1.6782-0.18944-2.1828-0.40832zm-25.938-6.2212c0-0.70194 0.93447-1.8268 1.5176-1.8268h0.6098l-0.53993 1.0583c-0.35532 0.69651-0.719 1.0583-1.0637 1.0583-0.28808 0-0.52379-0.13046-0.52379-0.28991zm-85.019-0.15107c-0.09701-0.097-0.17639-0.49839-0.17639-0.89195 0-0.65327 0.1094-0.73045 1.2568-0.88653 1.6049-0.21832 3.2185-1.1313 3.7935-2.1463 0.24726-0.43648 0.53229-1.4938 0.63341-2.3495l0.18385-1.5559-0.70379 0.17663c-5.4731 1.3737-12.504 0.0585-14.179-2.6525-1.2491-2.0211-1.2451-8.7704 0.0064-10.795 1.4061-2.2752 6.8898-3.7162 11.658-3.0634 4.2664 0.58415 6.7561 2.0859 7.3956 4.4612 0.20586 0.76451 0.27895 3.4392 0.22386 8.1925-0.09775 8.4353-0.13715 8.5762-2.8082 10.042-2.005 1.1002-6.7046 2.0483-7.2836 1.4693zm4.3215-9.5864 1.1906-0.43937 0.07567-3.2994c0.10393-4.5316-0.2202-6.4535-1.2713-7.5379-1.0051-1.037-2.3007-1.4501-4.5482-1.4501-2.0927 0-3.7796 0.78828-4.5715 2.1362-0.46543 0.79219-0.5326 1.3752-0.5326 4.6225 0 4.0356 0.17608 4.644 1.6173 5.5883 1.7968 1.1773 5.4157 1.3483 8.04 0.37984zm36.9 7.3598c-7.4991-0.93174-13.352-7.4938-13.352-14.97 0-2.6455 0.40063-4.3508 1.6241-6.9135 2.344-4.9098 7.158-8.1132 12.663-8.4268 1.2369-0.0705 2.7847-0.0147 3.4396 0.12391 1.0655 0.22553 0.91075 0.25505-1.4733 0.281-2.9921 0.0326-4.7374 0.45111-7.1215 1.7079-1.9716 1.0393-4.5328 3.5353-5.6479 5.5038-1.0284 1.8157-1.8969 5.0686-1.8969 7.1048 0 2.044 0.8711 5.2969 1.9001 7.0954 1.8065 3.1575 5.3485 5.881 8.8265 6.7869 1.9918 0.5188 5.3945 0.5188 7.3864 0 4.223-1.1 8.1643-4.565 9.6529-8.4865 0.49084-1.2931 0.84932-1.7887 0.62057-0.85801-0.318 1.2938-1.6258 3.8503-2.6835 5.2459-3.1852 4.2023-8.6199 6.4658-13.938 5.805zm0.14177-3.4225c-5.9278-1.0304-10.353-5.9192-10.774-11.902-0.32012-4.5535 2.0285-9.0858 6.0432-11.662 3.8373-2.4624 9.6473-2.4573 13.539 0.012 2.6326 1.6704 4.8157 4.681 5.6405 7.7788 0.40979 1.539 0.45655 4.7957 0.0803 5.5911-0.18799 0.39737-0.21858 0.26557-0.1228-0.52916 0.35765-2.9676-1.0182-6.8295-3.2881-9.2296-2.4189-2.5576-5.5835-3.7713-9.2256-3.5381-3.5053 0.22444-6.4658 1.804-8.569 4.5719-1.7026 2.2408-2.1755 3.7876-2.1818 7.1374-0.0051 2.7245 0.04802 3.0233 0.8318 4.6777 0.9233 1.9489 2.5125 3.8255 4.2544 5.024 1.2609 0.86752 3.7488 1.8055 4.8055 1.8117 0.3774 2e-3 0.86478 0.11947 1.0831 0.26053 0.48355 0.31249-0.30222 0.31078-2.1167-5e-3zm2.9104-1.0208c-1.3562-0.44627-2.9978-1.4254-4.1128-2.4532-5.3898-4.9682-5.0874-13.75 0.6342-18.414 1.3197-1.0758 1.4178-1.111 2.1043-0.75603 1.2132 0.62735 3.464 3.2293 4.2726 4.9392 0.87129 1.8423 1.4689 4.8741 1.221 6.195-0.12822 0.68348-0.42616 1.0432-1.2833 1.5494-0.61397 0.36261-1.533 1.1159-2.0424 1.674l-0.92604 1.0147 0.92604-0.84635c2.0671-1.8892 5.1278-2.5728 7.8052-1.7433l1.5875 0.49185 0.0818 1.1233c0.16926 2.3254-1.7987 5.1853-4.5224 6.5721-1.4707 0.7488-4.432 1.0853-5.7458 0.653zm48.521-0.56483c-3.8545-0.52851-6.0133-1.6321-6.9818-3.5691-0.63566-1.2713-0.66503-1.5524-0.75309-7.2083l-0.0916-5.8854 1.2823 0.16583c0.70525 0.0912 1.7585 0.2424 2.3406 0.33599l1.0583 0.17015 0.13229 5.7292c0.15005 6.498 0.19288 6.6385 2.3987 7.87 0.97198 0.54268 1.507 0.64599 3.2839 0.63413 1.1675-8e-3 2.8053-0.21297 3.6396-0.45595l1.5169-0.44179 0.0706-6.8069 0.0706-6.8069 2.3151-0.0765 2.3151-0.0764v8.0801c0 7.521-0.032 8.0797-0.46302 8.0748-0.25466-3e-3 -1.2029-0.11234-2.1072-0.24315-1.1835-0.17119-2.0117-0.14085-2.9561 0.10826-1.8135 0.47839-5.1363 0.66729-7.0711 0.40201zm-125.52-10.809v-10.812l1.0368-0.71847c1.9338-1.3401 4.0054-1.8287 7.8268-1.8459 3.7981-0.0171 6.2274 0.52473 8.0981 1.8063 2.0463 1.4019 2.4033 3.6466 2.2973 14.444l-0.07666 7.8052-4.6302 0.1528v-9.8102h-10.054v9.7896h-4.4979zm14.541-3.8063c-0.01348-3.4812-0.26304-5.0229-0.96537-5.9636-1.1872-1.5902-3.8742-2.2084-7.177-1.6513l-1.9003 0.32052v10.271h10.054zm31.948 14.452c-0.10242-0.10242-0.18622-3.8678-0.18622-8.3675v-8.1812l0.99219 0.14846c2.7502 0.41153 3.4298 0.44455 4.0761 0.19807 1.1148-0.42511 5.0042-0.88464 5.9638-0.70462 0.7734 0.14509 0.8741 0.26174 0.87351 1.0119l-5.29e-4 0.84791-1.6893 0.0237c-1.972 0.0277-3.9157 0.85999-4.7779 2.046-0.49996 0.68767-0.55339 1.232-0.67521 6.8792l-0.13229 6.1324-2.1289 0.076c-1.1709 0.0418-2.2127-8e-3 -2.3151-0.11024zm47.625 0c-0.10242-0.10242-0.18622-3.8037-0.18622-8.225v-8.0388l1.6536 0.18647c0.9095 0.10256 1.7727 0.19452 1.9182 0.20434 0.14552 0.01 1.1968-0.20129 2.3361-0.46916 1.6385-0.38522 2.7447-0.45989 5.2917-0.35723 3.5227 0.14199 5.619 0.70173 7.2301 1.9306 1.72 1.3119 1.8013 1.6828 1.898 8.6516l0.0871 6.2838h-4.5399l-2e-3 -4.8286c-2e-3 -7.6044-0.39401-8.8588-3.0864-9.8871-1.4119-0.53922-5.5118-0.39661-7.0279 0.24446l-0.98777 0.41765-0.0706 6.9607-0.0705 6.9607-2.1289 0.076c-1.1709 0.0418-2.2127-8e-3 -2.3151-0.11024zm50.349-6.9772v-7.1438h-2.9104v-2.1167h2.9104v-7.47l1.7859 0.1793c2.9409 0.29524 2.712-0.0313 2.712 3.8689v3.4218h4.7625v2.1167h-4.7625v14.288h-4.4979z" fill="#b8d5e0"/>
  <path d="m133.43 157.95c-1.4185-0.454-1.7575-0.99139-1.7575-2.7861 0-1.2498 0.11446-1.7414 0.4832-2.0751 0.50176-0.4541 2.669-0.9713 3.4404-0.82105 1.591 0.3099 1.9663 0.45156 2.4332 0.91846 0.32117 0.32117 0.52244 0.87919 0.52244 1.4485v0.92604h-2.6458c-2.6095 0-2.6458 9e-3 -2.6458 0.62907 0 0.34598 0.19694 0.79246 0.43765 0.99218 0.57847 0.47998 2.5414 0.42009 3.338-0.10183 0.36933-0.24199 0.77675-0.32638 0.97732-0.20242 0.58738 0.36302-0.86401 1.0872-2.4173 1.2062-0.77526 0.0594-1.7498-1e-3 -2.1656-0.13402zm3.5342-3.4928c0-0.88383-0.75911-1.5422-1.7782-1.5422-1.3283 0-1.926 0.41344-1.926 1.3322v0.78444h1.8521c1.7244 0 1.8521-0.0396 1.8521-0.57448zm9.1995 3.3127c-1.1337-0.47033-1.5226-1.4176-1.5251-3.7148-2e-3 -1.4558 0.22676-1.8004 1.0249-1.5471 0.40646 0.12901 0.51482 0.50479 0.62052 2.1519 0.15003 2.3378 0.52319 2.8748 1.9946 2.8703 1.8563-6e-3 1.9148-0.0903 1.9148-2.7724v-2.4071l1.4552 0.1674 0.075 2.6729 0.075 2.6729-1.7948 0.16949c-2.4223 0.22876-2.6994 0.20975-3.8401-0.26348zm11.901 0.014c-0.54571-0.23517-0.99219-0.52689-0.99219-0.64826 0-0.35607 0.47812-0.54854 0.65435-0.2634 0.32394 0.52415 2.24 0.85158 3.1759 0.54271 1.8817-0.62102 1.4015-1.7633-1.2754-3.0336-1.9968-0.94759-2.6732-1.6986-2.5123-2.7894 0.13122-0.88959 1.3194-1.6434 2.8173-1.7873 1.2769-0.12269 3.2256 0.30355 3.2256 0.70553 0 0.44002-0.33643 0.48398-1.0109 0.1321-1.4081-0.73465-3.487-0.2464-3.487 0.81899 0 0.76457 0.7007 1.364 2.1861 1.8701 1.8084 0.61619 2.6271 1.481 2.5261 2.6682-0.0567 0.66601-0.2912 1.1193-0.75902 1.467-0.94324 0.70106-3.2797 0.86402-4.5485 0.31723zm16.019 0.1452c-1.3911-0.42744-1.6655-1.091-1.6655-4.0267 0-2.3871 0.0515-2.6505 0.6319-3.2309 1.0918-1.0918 4.4719-1.2589 5.4146-0.26765 0.4095 0.43057 0.38793 0.44796-0.358 0.28875-2.2306-0.47612-2.7774-0.48481-3.434-0.0546-0.64153 0.42035-0.66688 0.54054-0.66299 3.143 2e-3 1.4882 0.094 2.8473 0.20383 3.02 0.55094 0.86645 2.8483 0.98359 3.7669 0.19206 0.24302-0.2094 0.54561-0.25898 0.7625-0.12494 0.27829 0.17199 0.20679 0.32235-0.31628 0.66508-0.82033 0.5375-3.1816 0.75273-4.343 0.39585zm-49.82-3.7047v-3.7177l0.91754-0.38338c1.2426-0.51919 3.2497-0.4824 4.3674 0.0801 1.0433 0.52501 1.4125 1.5995 1.1456 3.334-0.21269 1.3824-1.2617 2.0211-3.3217 2.0224l-1.5214 9.9e-4v1.1906c0 1.1465-0.0294 1.1906-0.79375 1.1906h-0.79375zm4.2346 0.54198c0.67587-0.36172 0.96517-2.345 0.48744-3.3418-0.41441-0.86464-1.4353-1.3072-2.436-1.0561-0.6864 0.17228-0.69861 0.21458-0.69861 2.4193v2.2439h1.0757c0.59165 0 1.2988-0.11937 1.5714-0.26527zm11.111 0.42809v-2.7476l1.2568-0.0404c0.69122-0.0222 1.5544-0.0657 1.9182-0.0967 0.3638-0.0309 0.72099 0.0628 0.79375 0.20835 0.0728 0.14552-0.25311 0.30177-0.72416 0.34723-1.263 0.12189-1.6571 0.8713-1.6571 3.1512v1.9255h-1.5875zm24.871-0.81818v-3.5658l0.71709-0.46912c0.51882-0.33941 1.2445-0.46912 2.6246-0.46912 1.6546 0 1.998 0.085 2.5902 0.64143 0.66507 0.62486 0.68272 0.72915 0.68272 4.0349v3.3935h-1.5875v-3.175h-3.4396v3.175h-1.5875zm4.9741-1.922c-0.0717-1.3726-0.15166-1.5536-0.82945-1.8773-0.45947-0.21945-1.1002-0.29259-1.6536-0.18877l-0.90354 0.16951v3.4156h3.466zm-106.57-1.7519c0-0.87039 0.03447-0.89884 1.291-1.0655 2.5257-0.33504 3.8986-1.7978 4.1587-4.4309l0.17343-1.7559-1.4225 0.38268c-2.1773 0.58573-7.7853 0.33818-9.9776-0.44044-2.1294-0.75626-3.58-2.0959-4.0135-3.7066-0.46082-1.7122-0.24006-7.8128 0.32073-8.8635 1.3703-2.5676 4.8563-3.7384 10.454-3.5111 4.5037 0.18289 7.3295 1.364 8.4083 3.5146 0.47813 0.95311 0.5375 1.6857 0.6156 7.5959 0.09546 7.2246-0.10924 8.981-1.1974 10.274-1.1855 1.4088-3.7545 2.3755-7.2896 2.7427l-1.5214 0.15806zm4.3246-8.7888 1.2819-0.44261-0.09125-4.6629c-0.08042-4.1095-0.15501-4.7715-0.62851-5.5774-1.2767-2.1732-5.4978-3.0075-8.0388-1.5889-1.966 1.0976-2.2496 1.7016-2.3637 5.0356-0.0546 1.5951-0.01844 3.4391 0.08032 4.0978 0.2372 1.5818 1.401 2.9032 3.0155 3.4237 1.5245 0.49156 4.9095 0.34843 6.7446-0.28519zm81.057 8.7524c0.26511-0.55592 0.63351-0.92604 0.92176-0.92604 0.58327 0 0.58901 0.0804 0.0765 1.0715-0.23851 0.46123-0.61565 0.78061-0.92176 0.78061-0.49983 0-0.50253-0.0326-0.0765-0.92604zm-46.355-1.9499c-4.0522-1.1665-7.7398-4.1686-9.4909-7.7269-2.2252-4.5216-2.2676-9.2577-0.12258-13.682 1.2427-2.5635 4.281-5.5698 6.8729-6.8007 2.2038-1.0466 4.9961-1.7239 6.974-1.6916 1.206 0.0197 1.1351 0.0508-0.80263 0.352-2.8503 0.44307-4.5472 1.0373-6.3906 2.2379-6.3356 4.1266-8.5049 12.085-5.1212 18.788 0.95232 1.8865 3.2525 4.4326 5.042 5.5809 4.6235 2.9669 10.953 2.9887 15.485 0.0533 1.964-1.2719 4.1447-3.6359 5.1503-5.5831 0.42151-0.81621 0.77211-1.3824 0.77911-1.2581 7e-3 0.12424-0.42778 1.0767-0.96618 2.1167-1.9192 3.707-5.6304 6.627-9.7749 7.6911-2.1056 0.5406-5.6115 0.5051-7.6347-0.0773zm1.1256-3.2317c-3.8721-0.91283-7.4969-4.2813-8.9677-8.3335-0.78798-2.171-0.7845-5.948 0.0075-8.1594 3.2621-9.1078 14.854-11.598 21.347-4.5861 2.3435 2.5313 3.5738 5.6494 3.5236 8.9304-0.0217 1.4203-0.0304 1.4025-0.36258-0.73967-0.59308-3.825-2.6942-7.0689-5.732-8.8491-3.1257-1.8318-7.6336-2.0534-10.877-0.53465-3.1447 1.4725-5.6783 4.4665-6.5493 7.7396-0.17388 0.65343-0.31024 2.0889-0.30302 3.19 0.03581 5.4593 4.0298 10.296 9.3733 11.35 0.88377 0.17443 0.95226 0.22142 0.32551 0.22332-0.43656 1e-3 -1.2397-0.10272-1.7848-0.23123zm3.9606-0.86689c-2.8487-0.80152-5.8415-3.7499-7.0941-6.9889-0.7676-1.9848-0.85289-5.8474-0.17729-8.0293 0.63156-2.0398 2.3434-4.5098 3.9352-5.6783 1.5264-1.1205 1.8416-1.0726 3.6412 0.55314 2.3452 2.1187 3.7479 5.3922 3.7223 8.6869l-0.0147 1.8947-1.5654 1.0071c-0.86096 0.5539-1.8324 1.3873-2.1588 1.8521l-0.59338 0.845 1.0317-0.89469c2.3727-2.0576 5.5591-2.7036 8.4601-1.7152l1.2704 0.43285-0.14998 1.2663c-0.55647 4.6986-5.6878 8.0682-10.307 6.7685zm47.15-0.71103c-2.0162-0.47806-3.8807-1.3461-4.6943-2.1856-1.2445-1.284-1.6264-3.4472-1.6321-9.245l-5e-3 -4.6964h0.62265c0.34246 0 1.3372 0.0747 2.2106 0.16598l1.588 0.16597 0.1411 5.4865c0.16484 6.4095 0.3299 6.998 2.2852 8.1474 1.1013 0.6474 1.4713 0.71791 3.7359 0.71183 2.3546-6e-3 4.1848-0.37012 4.9609-0.98617 0.24903-0.19765 0.33073-1.9239 0.33073-6.9877v-6.7252l2.1828 0.0768 2.1828 0.0769 0.07 8.0036c0.0385 4.402 0.0174 8.0036-0.047 8.0036s-0.99788-0.12252-2.0745-0.27226c-1.5618-0.21722-2.301-0.19127-3.6572 0.12838-1.8326 0.43196-6.6102 0.50841-8.201 0.13124zm-124.07-10.547v-10.56l0.78962-0.66442c1.9394-1.6319 6.6209-2.5682 10.401-2.0802 3.7823 0.48825 6.2397 1.7008 7.2735 3.589 0.40047 0.73148 0.463 1.9658 0.53459 10.552l0.08107 9.7234h-4.5278v-9.525h-10.054v9.525h-4.4979zm14.546-4.0584c-0.0035-1.7826-0.11624-3.7174-0.2506-4.2995-0.29794-1.2908-1.6632-2.6253-3.0915-3.0219-1.3093-0.36356-3.6716-0.36307-5.3698 1e-3l-1.3359 0.28651v10.275h10.054zm31.756 6.5925c0-4.4141 0.058-8.0837 0.12889-8.1546 0.07089-0.0709 0.96242-0.0213 1.9812 0.11013 1.4289 0.18438 2.2732 0.14328 3.6937-0.17979 1.0128-0.23035 2.8001-0.41881 3.9719-0.41881h2.1306v0.79375c0 0.77212-0.03473 0.79375-1.2749 0.79375-2.8577 0-5.0519 1.2491-5.6095 3.1932-0.14265 0.49741-0.25937 3.3757-0.25937 6.3962v5.4918h-4.7625zm47.625 0.10381c0-4.357 0.0893-7.9746 0.19844-8.0391 0.10914-0.0645 0.95704-0.0116 1.8842 0.11739 1.3123 0.18259 1.9864 0.14153 3.0427-0.1853 2.0938-0.64787 6.792-0.78517 9.0298-0.26389 2.3655 0.55102 4.4784 1.5764 5.1198 2.4846 0.83418 1.1812 1.098 3.2621 1.098 8.6618v5.1464h-4.4539l-0.0882-5.887c-0.10253-6.8473-0.21468-7.2282-2.4705-8.389-1.0973-0.56468-1.6496-0.66957-3.4315-0.65168-1.168 0.0117-2.8083 0.22342-3.645 0.47042l-1.5214 0.44908v14.008h-4.7625zm50.535 0.77814v-7.1438h-2.9439l0.0829-0.8599c0.0808-0.83855 0.11738-0.86188 1.472-0.93987l1.3891-0.08v-3.6903c0-2.1791 0.10393-3.6903 0.25378-3.6903 0.13957 0 1.1516 0.13354 2.249 0.29675l1.9952 0.29674v6.7942l2.3151 0.0764 2.3151 0.0765 0.0829 0.85989 0.0829 0.8599h-4.796v14.288h-4.4979z" fill="#7cb2c6"/>
  <path d="m133.67 157.95c-1.4044-0.27792-2.0008-1.0715-2.0008-2.6622 0-0.69958 0.074-1.4647 0.16435-1.7003 0.26799-0.69835 1.5636-1.2025 3.0903-1.2025 2.6086 0 3.6245 0.70933 3.6245 2.5308 0 0.64114-0.0132 0.64423-2.7414 0.64423h-2.7414l0.12953 0.67759c0.19773 1.0344 1.1592 1.533 2.5531 1.3239 0.64321-0.0965 1.3118-0.34682 1.4857-0.55637 0.32373-0.39007 0.78541-0.29337 0.78541 0.16451 0 0.60889-2.7355 1.0997-4.3492 0.78032zm3.2909-3.5396c0-0.89131-0.90908-1.6053-2.0044-1.5743-0.50685 0.0144-1.0835 0.16051-1.2814 0.32476-0.38179 0.31685-0.70169 1.4985-0.46875 1.7315 0.0762 0.0762 0.95211 0.13851 1.9465 0.13851 1.7203 0 1.808-0.0301 1.808-0.62045zm10.451 3.6756c-0.14552-0.0542-0.58368-0.16863-0.97369-0.25433-1.2972-0.28508-1.5398-0.78612-1.5398-3.18v-2.1934l0.66145 0.12645c0.62975 0.12038 0.66146 0.21434 0.66146 1.9597 0 1.5936 0.0849 1.9182 0.64944 2.4827 0.68902 0.68903 1.53 0.81367 2.6406 0.3914 0.65527-0.24914 0.67868-0.33586 0.67868-2.5136v-2.2555h1.5875v5.3082l-0.85989-0.0463c-0.47295-0.0255-1.3957 0.0256-2.0505 0.11335-0.65485 0.0878-1.3097 0.1153-1.4552 0.0611zm11.642-0.0552c-0.98879-0.22285-1.9844-0.68213-1.9844-0.91543 0-0.32316 0.21537-0.29504 1.5011 0.19598 1.4813 0.5657 2.9096 0.31698 3.3172-0.57764 0.24934-0.54726 0.20638-0.74527-0.27226-1.2548-0.31258-0.33272-1.1649-0.81949-1.8941-1.0817-1.363-0.49011-2.652-1.7067-2.652-2.5029 0-1.1632 1.5806-2.1523 3.4396-2.1523 1.0093 0 2.6458 0.51593 2.6458 0.8341 0 0.16849-0.24089 0.21282-0.59532 0.10955-2.1297-0.62049-3.4416-0.48507-3.9176 0.40441-0.40444 0.7557 0.45172 1.6424 2.1889 2.2671 1.82 0.65445 2.6364 1.5202 2.5355 2.6885-0.0535 0.61941-0.29375 1.068-0.74065 1.3829-0.68325 0.48144-2.6421 0.81165-3.5719 0.6021zm15.22-0.17406c-1.5743-0.41516-1.8494-1.0226-1.8542-4.0947-4e-3 -2.2284 0.0542-2.5176 0.61511-3.0784 0.9723-0.9723 3.9185-1.2084 5.1996-0.41666 0.62401 0.38565 0.0641 0.64366-0.67054 0.30895-0.94354-0.4299-2.2766-0.38312-2.9725 0.10431-0.54606 0.38248-0.58804 0.61628-0.58804 3.2749 0 3.1659 0.0967 3.3771 1.6613 3.631 0.58805 0.0954 1.2544-0.0127 1.8657-0.30278 1.1647-0.55267 1.9089-0.40897 0.96553 0.18644-0.92069 0.58113-2.8241 0.75559-4.2219 0.38697zm-50.012-3.6104c0-4.1067-0.0414-4.0124 1.9249-4.3812 1.3839-0.25962 3.1846 0.0618 3.8572 0.68846 0.4672 0.43527 0.56789 0.83108 0.56789 2.2325 0 1.5417-0.0652 1.7461-0.68677 2.1534-0.3791 0.24839-1.4756 0.51783-2.4474 0.60141l-1.7606 0.15143-0.0814 1.1245c-0.0719 0.9938-0.15647 1.1245-0.72761 1.1245h-0.64624zm4.5282 0.22502c0.47209-0.4721 0.54046-0.78806 0.43796-2.024-0.13813-1.6657-0.59807-2.179-1.9524-2.179-1.6187 0-1.6909 0.10851-1.6909 2.5418v2.2206h1.3229c0.99399 0 1.462-0.1391 1.8823-0.55942zm10.818 0.75785 2e-5 -2.712 2.0505-0.0439c1.7229-0.0369 1.9237 2.7e-4 1.2568 0.23296-1.5238 0.53153-1.7198 0.89148-1.7198 3.1592v2.0756h-1.5875zm25.135-0.98287c0-3.3987 0.0416-3.7171 0.5185-3.9724 0.87287-0.46715 2.735-0.60538 3.9063-0.28998 1.7276 0.46518 1.9252 0.94855 1.9252 4.7088v3.2484h-0.64884c-0.61111 0-0.65341-0.0961-0.7276-1.6536l-0.0788-1.6536h-3.4396l-0.0788 1.6536c-0.0742 1.5575-0.11649 1.6536-0.7276 1.6536h-0.64883zm4.8542-1.5869c-0.0462-1.6431-0.65663-2.3911-1.9514-2.3911-1.4284 0-1.5798 0.18873-1.5798 1.9686 0 0.90606 0.0844 1.7318 0.18758 1.835 0.10317 0.10317 0.90684 0.15278 1.7859 0.11024l1.5984-0.0773zm-21.384-1.8756c0.40513-0.78344 1.0609-1.2556 1.3468-0.9697 0.30352 0.30351-0.72067 1.7771-1.2351 1.7771-0.50477 0-0.50992-0.0372-0.11166-0.80736zm-85.335-0.21316c0-0.74952 0.07914-0.83156 0.80225-0.83156 1.0752 0 2.6062-0.66526 3.4989-1.5204 0.81703-0.78258 1.2514-2.0509 1.2536-3.6603l0.0016-1.0796-1.6536 0.34652c-4.7632 0.99813-11.102-0.19661-12.853-2.4225-0.72734-0.92452-1.1042-2.8654-1.1042-5.6866 0-4.9223 0.95729-6.5839 4.4317-7.6921 2.2161-0.70685 6.441-0.95874 8.9615-0.53427 2.2064 0.37157 4.9219 1.6381 5.6228 2.6224 0.81556 1.1454 1.0923 3.4603 1.0923 9.1366 0 6.7802-0.25952 8.3685-1.5837 9.6927-1.2398 1.2398-3.6375 2.1019-6.4199 2.3085l-2.0505 0.1522zm2.9104-8.2527c0.65484-0.14543 1.5272-0.39891 1.9387-0.56327l0.74806-0.29884-0.0866-4.8356c-0.07902-4.4125-0.13495-4.9009-0.6392-5.5818-2.3913-3.2293-8.8269-2.6985-10.164 0.83816-0.44732 1.1835-0.39282 6.727 0.07699 7.8308 1.0359 2.4339 4.2589 3.4693 8.1257 2.6106zm37.571 6.7092c-3.9348-0.65868-7.7218-3.1277-9.9833-6.5089-4.049-6.0538-3.3082-13.916 1.8015-19.118 2.3201-2.3624 6.4295-4.368 8.8433-4.3161l1.0583 0.0228-1.3048 0.24917c-3.421 0.6533-7.2867 3.3451-9.3116 6.4841-3.49 5.41-2.8221 12.809 1.5798 17.5 1.721 1.8342 3.9362 3.2838 6.2081 4.0625 1.3833 0.47415 2.3484 0.60675 4.416 0.60675 3.1126 0 5.2751-0.6201 7.7233-2.2147 1.7136-1.1161 4.0186-3.4459 4.6858-4.7362 0.24021-0.4645 0.50064-0.84455 0.57875-0.84455 0.0781 0-0.19285 0.62481-0.60211 1.3885-1.7161 3.2022-5.8829 6.3162-9.6349 7.2006-1.5757 0.37142-4.5258 0.4805-6.0581 0.224zm1.0087-3.4375c0.19099-0.0764 0.4192-0.067 0.50712 0.0209 0.0879 0.0879-0.0684 0.15045-0.34727 0.13896-0.30823-0.0127-0.37092-0.0754-0.15985-0.15985zm-2.8672-0.69776c-3.6709-1.5103-6.1551-4.1552-7.4182-7.8981-0.47027-1.3935-0.54918-2.1438-0.47026-4.4716 0.08903-2.6258 0.15813-2.9255 1.1287-4.8948 2.2317-4.5282 6.5457-7.2399 11.539-7.2532 4.0645-0.0108 8.3439 2.3436 10.573 5.8168 0.92895 1.4476 1.8659 4.1374 1.8285 5.2493-0.0181 0.53925-0.10132 0.42536-0.35548-0.4866-1.6308-5.8514-7.5506-9.7426-13.299-8.7416-2.4839 0.43255-4.4443 1.4371-6.3346 3.2458-3.8336 3.6682-4.7691 8.9405-2.4306 13.698 1.3521 2.7508 4.2288 5.224 7.0973 6.102 0.53475 0.16368 0.56009 0.20562 0.1323 0.21892-0.29105 9e-3 -1.1869-0.25414-1.9908-0.58489zm5.8661-0.18992c-3.6403-0.74661-7.2088-4.8112-8.0052-9.118-0.80116-4.3327 1.0155-9.2584 4.3052-11.673l1.3391-0.98296 0.92658 0.499c1.9268 1.0376 4.2037 4.3583 4.8193 7.0282 0.32377 1.4044 0.36681 4.7322 0.0612 4.7322-0.52208 0-2.7524 1.7224-3.5394 2.7334l-0.85861 1.103 1.1472-1.0179c2.4534-2.1769 5.6397-2.8703 8.5822-1.8676 1.0918 0.37202 1.2378 0.51206 1.2378 1.1878 0 1.0391-0.86793 3.2503-1.7082 4.352-1.7955 2.3541-5.3195 3.637-8.3071 3.0242zm46.569-0.92546c-3.2227-0.69944-4.9918-1.9725-5.6055-4.0336-0.16112-0.54118-0.36158-3.4716-0.44545-6.512l-0.1525-5.5281 1.9176 0.18895c1.0547 0.10392 2.0704 0.24761 2.2572 0.31931 0.25609 0.0983 0.3654 1.4449 0.44413 5.4714 0.12274 6.2773 0.33234 7.0055 2.3371 8.1192 1.0362 0.57566 1.5166 0.66142 3.7042 0.66119 1.7522-1.8e-4 2.9343-0.14687 3.9026-0.48428l1.3891-0.48402v-13.451h4.4979v15.865l-1.2568-0.19337c-1.7612-0.27099-3.6598-0.2166-5.3278 0.15262-1.8603 0.41177-5.5472 0.36801-7.6617-0.0909zm-123.87-10.44v-10.582l1.1016-0.79802c1.6747-1.2131 3.3962-1.6502 7.0317-1.7852 5.4725-0.20318 9.0044 1.0043 10.255 3.5059 0.49474 0.98948 0.53462 1.6823 0.61306 10.649l0.08389 9.5912h-4.5334v-9.7896h-10.054v9.7896h-4.4979zm14.551-4.1688c-8.12e-4 -1.8554-0.12277-3.8101-0.27101-4.3439-0.31825-1.1458-1.6669-2.4146-3.0527-2.872-1.0149-0.33494-5.347-0.2402-6.2659 0.13703-0.41852 0.17182-0.46302 0.68323-0.46302 5.3212v5.1311h10.054l-0.0015-3.3734zm32.016 6.6582v-8.0924l1.9182 0.17949c1.3479 0.12613 2.5246 0.0542 3.9576-0.24201 1.1217-0.23183 2.8778-0.4215 3.9026-0.4215h1.8632v0.79375c0 0.78096-0.02238 0.79377-1.3891 0.79522-2.0246 2e-3 -3.3039 0.44372-4.4895 1.5497-0.97532 0.90976-1.0652 1.1176-1.2778 2.9549-0.12578 1.087-0.23393 3.911-0.24032 6.2758l-0.01162 4.2995h-4.2333zm47.625 0.0652v-8.0272l1.6132 0.24416c1.2945 0.19593 1.9871 0.14831 3.5057-0.24105 2.7097-0.69475 7.8783-0.63649 10.178 0.11472 2.2622 0.73902 3.3839 1.5546 4.088 2.9719 0.54846 1.1042 0.59804 1.6179 0.68305 7.0776l0.0917 5.887h-4.5126l-0.0843-5.887c-0.0967-6.7499-0.22466-7.208-2.3468-8.4005-1.0393-0.58402-1.4714-0.65835-3.6906-0.63486-1.7982 0.019-2.89 0.17196-3.8365 0.53733l-1.3229 0.51071-0.141 13.874h-4.2245zm50.271 0.88343v-7.1438h-1.4552c-1.4405 0-1.4552-8e-3 -1.4552-0.79375 0-0.78574 0.0147-0.79375 1.4552-0.79375h1.4552v-7.715l0.7276 0.14265c0.40019 0.0785 1.4122 0.22069 2.249 0.31609l1.5214 0.17345v7.0828h4.7625v1.5875h-4.7625v14.288h-4.4979zm-55.76-3.5719c3e-3 -0.58208 0.0571-0.78905 0.12041-0.45993 0.0633 0.32911 0.0609 0.80536-5e-3 1.0583-0.0662 0.25296-0.118-0.0163-0.11506-0.5984zm-13.225-14.339c0.25743-0.0671 0.61462-0.0627 0.79375 0.01 0.17913 0.0725-0.0315 0.12736-0.46806 0.12197-0.43656-5e-3 -0.58312-0.0647-0.32569-0.13177z" fill="#4993b0"/>
  <path d="m124.26 154.38c0-3.4108 0.0259-3.582 0.59531-3.9391 1.4268-0.89464 4.43-0.68699 5.2821 0.36521 0.32216 0.39784 0.47263 1.0343 0.47263 1.9992 0 2.1055-0.91662 2.7591-3.8695 2.7591h-1.1576v1.1906c0 1.0936-0.0539 1.1906-0.66145 1.1906h-0.66146zm4.5086 0.24877c0.39167-0.35446 0.51843-0.81496 0.51843-1.8834 0-1.9137-0.59501-2.532-2.329-2.4203l-1.2428 0.0801-0.078 2.0933c-0.0429 1.1513-0.0111 2.2679 0.0708 2.4813 0.20327 0.52972 2.3609 0.28233 3.0606-0.35093zm3.9715 2.9394c-0.76837-0.42553-1.0281-0.99687-1.0532-2.3172-0.0432-2.2665 1.0902-3.0504 4.0258-2.7842 1.8409 0.16693 2.4464 0.63677 2.7134 2.1055l0.18032 0.99218h-2.8076c-3.1102 0-3.4169 0.20851-2.1581 1.4672 0.75129 0.75129 2.2477 0.86515 3.3193 0.25256 0.95876-0.54809 1.2932-0.46472 0.566 0.14109-0.48645 0.40525-1.0132 0.51829-2.3812 0.51099-0.96615-5e-3 -2.0482-0.17085-2.4046-0.3682zm4.3243-3.2604c-0.23722-1.0142-0.65125-1.3822-1.757-1.5617-0.79083-0.12834-1.0711-0.0382-1.6353 0.52601-0.37449 0.3745-0.68089 0.92444-0.68089 1.2221 0 0.5002 0.16067 0.54119 2.1217 0.54119h2.1217zm2.8059 1.023v-2.615l1.7406-0.1864c1.8847-0.20183 2.5698-0.0479 1.0531 0.23667-1.2231 0.22945-1.4708 0.76467-1.4708 3.178 0 1.9588-0.0142 2.0018-0.66146 2.0018-0.66094 0-0.66146-2e-3 -0.66146-2.615zm6.1689 2.3528c-0.87282-0.35799-1.1418-1.1024-1.1418-3.16 0-1.8177 0.0183-1.8695 0.66145-1.8695 0.64676 0 0.66146 0.0441 0.66146 1.9844 0 2.313 0.46216 3.0452 1.9182 3.0391 2.0036-8e-3 2.0505-0.0696 2.0505-2.6731 0-2.3307 6e-3 -2.3504 0.66146-2.3504 0.66053 0 0.66146 4e-3 0.66146 2.5912v2.5912l-2.4474 0.042c-1.3461 0.0231-2.7075-0.0647-3.0254-0.19505zm11.916-5.3e-4c-0.61504-0.24819-1.0748-0.79556-0.66824-0.79556 0.13747 0 0.59098 0.17786 1.0078 0.39525 1.7777 0.92712 4.0591 0.14158 3.7035-1.2752-0.13918-0.55454-0.61266-0.91631-2.2227-1.6983-1.3994-0.67965-2.1512-1.2158-2.3793-1.6968-0.74043-1.5614 0.67421-2.7355 3.251-2.6982 1.301 0.0188 2.9626 0.60351 2.3219 0.81706-0.17344 0.0578-0.55225-0.0217-0.84179-0.17662-0.85686-0.45858-2.5511-0.33773-3.2439 0.23138-0.58761 0.48272-0.60101 0.55629-0.22618 1.2415 0.27564 0.50387 0.88729 0.91574 1.9844 1.3362 2.896 1.11 3.722 3.149 1.6993 4.195-0.81393 0.42089-3.4645 0.496-4.3858 0.12427zm6.786-3.4093v-3.6721l0.7276-0.28014c1.3413-0.51641 2.3061-0.58237 3.6311-0.24822 1.7886 0.45104 1.9825 0.91592 1.9874 4.7636l4e-3 3.1088h-0.66146c-0.63772 0-0.66146-0.0617-0.66146-1.7198v-1.7198h-3.7042v1.7198c0 1.6581-0.0237 1.7198-0.66145 1.7198h-0.66146zm4.9733-1.6552c-0.14252-1.9703-0.58417-2.4051-2.3274-2.2912l-1.1906 0.0778-0.1554 3.8365h3.791zm3.7111 4.9214c-0.59264-0.32181-0.73874-0.62778-0.8943-1.8729-0.2166-1.7336 0.0225-4.5279 0.42934-5.0182 0.66018-0.79546 4.7374-1.0012 5.463-0.27561 0.32994 0.32994-0.15823 0.46363-0.67772 0.18561-0.79963-0.42795-2.8443-0.3544-3.3181 0.11936-0.55949 0.55949-0.76943 1.9047-0.64392 4.1261 0.0891 1.5766 0.20608 1.963 0.72053 2.3796 0.72942 0.59065 2.2599 0.63867 3.2014 0.10046 0.76656-0.43821 1.0583-0.48639 1.0583-0.17477 0 0.81146-4.0374 1.1369-5.3386 0.43039zm-25.142-6.7362c0.24789-0.43565 0.65354-0.79283 0.90143-0.79375 0.42456-2e-3 0.42456 0.0443 0 0.7904-0.24789 0.43564-0.65354 0.79283-0.90143 0.79375-0.42456 2e-3 -0.42456-0.0443 0-0.7904zm-85.407-0.12893c0-0.50349 0.16951-0.69121 0.7276-0.80578 3.1124-0.63891 4.4282-1.6925 4.6891-3.7546 0.08807-0.69601 0.2148-1.6067 0.28163-2.0238 0.10924-0.68177 0.06145-0.74091-0.47333-0.58572-3.2089 0.93123-8.3429 0.76901-11.342-0.35838-2.2562-0.84801-3.2823-1.9911-3.6422-4.0575-0.37531-2.1552-0.37494-4.5833 0.0011-6.7422 0.36249-2.0816 1.336-3.1867 3.5306-4.0078 6.1466-2.2998 14.612-0.63883 15.776 3.0953 0.16811 0.53921 0.36326 3.4814 0.43433 6.5484 0.14042 6.0594-0.13508 8.9281-0.99032 10.312-0.95994 1.5532-4.7642 3.0193-7.8676 3.032-1.022 4e-3 -1.1245-0.0552-1.1245-0.65183zm3.7223-8.4987c2.2854-0.67408 2.1984-0.44484 2.0154-5.3136-0.17766-4.726-0.41568-5.651-1.7412-6.7663-2.564-2.1574-7.759-1.4419-9.1409 1.259-0.46094 0.90088-0.54103 1.5504-0.53835 4.3656 4e-3 4.1986 0.35735 5.0718 2.4891 6.1516 1.1942 0.60489 1.7774 0.7276 3.4577 0.7276 1.1117 0 2.6679-0.19074 3.4583-0.42387zm36.759 6.8557c-3.9348-0.65868-7.7218-3.1277-9.9833-6.5089-4.049-6.0538-3.3082-13.916 1.8015-19.118 2.3201-2.3624 6.4295-4.368 8.8433-4.3161l1.0583 0.0228-1.3048 0.24917c-3.421 0.6533-7.2867 3.3451-9.3116 6.4841-3.49 5.41-2.8221 12.809 1.5798 17.5 1.721 1.8342 3.9362 3.2838 6.2081 4.0625 1.3833 0.47415 2.3484 0.60675 4.416 0.60675 3.1126 0 5.2751-0.6201 7.7233-2.2147 1.7136-1.1161 4.0186-3.4459 4.6858-4.7362 0.24021-0.4645 0.50064-0.84455 0.57875-0.84455 0.0781 0-0.19285 0.62481-0.60211 1.3885-1.7161 3.2022-5.8829 6.3162-9.6349 7.2006-1.5757 0.37142-4.5258 0.4805-6.0581 0.224zm-2.8412-4.6219c-1.9053-0.95223-3.9298-2.7916-5.0965-4.6304-2.3163-3.6507-2.46-8.9521-0.34768-12.833 0.90399-1.6609 3.5641-4.1986 5.3494-5.1034 5.6757-2.8761 12.671-1.0819 16.161 4.1454 0.98528 1.4755 2.1388 4.466 2.1062 5.4607-8e-3 0.23934-0.23263-0.24803-0.49956-1.083-1.772-5.5432-7.574-9.1652-13.151-8.2099-6.7715 1.1599-11.365 7.8303-9.8672 14.328 0.72447 3.1424 3.4716 6.6412 6.32 8.0492 0.79256 0.39179 1.2688 0.70986 1.0583 0.70684-0.21048-3e-3 -1.1255-0.37672-2.0333-0.83045zm6.8488 0.29669c-3.6403-0.74661-7.2088-4.8112-8.0052-9.118-0.80116-4.3327 1.0155-9.2584 4.3052-11.673l1.3391-0.98296 0.92658 0.499c1.9268 1.0376 4.2037 4.3583 4.8193 7.0282 0.32377 1.4044 0.36681 4.7322 0.0612 4.7322-0.52208 0-2.7524 1.7224-3.5394 2.7334l-0.85861 1.103 1.1472-1.0179c2.4534-2.1769 5.6397-2.8703 8.5822-1.8676 1.0918 0.37202 1.2378 0.51206 1.2378 1.1878 0 1.0391-0.86793 3.2503-1.7082 4.352-1.7955 2.3541-5.3195 3.637-8.3071 3.0242zm46.569-0.92546c-3.2227-0.69944-4.9918-1.9725-5.6055-4.0336-0.16112-0.54118-0.36158-3.4716-0.44545-6.512l-0.1525-5.5281 1.9176 0.18895c1.0547 0.10392 2.0704 0.24761 2.2572 0.31931 0.25609 0.0983 0.3654 1.4449 0.44413 5.4714 0.12274 6.2773 0.33234 7.0055 2.3371 8.1192 1.0362 0.57566 1.5166 0.66142 3.7042 0.66119 1.7522-1.8e-4 2.9343-0.14687 3.9026-0.48428l1.3891-0.48402v-13.451h4.4979v15.865l-1.2568-0.19337c-1.7612-0.27099-3.6598-0.2166-5.3278 0.15262-1.8603 0.41177-5.5472 0.36801-7.6617-0.0909zm-123.87-10.447v-10.589l1.2568-0.79719c1.8552-1.1768 3.5576-1.6156 6.8533-1.7665 3.434-0.15725 6.0494 0.31029 8.1618 1.459 1.0265 0.55822 1.4711 1.0158 1.9844 2.0423l0.66146 1.3229 0.08664 9.4588 0.08663 9.4589h-4.2624l-0.07211-4.8286-0.07211-4.8286-10.186-0.1438v9.801h-4.4979zm14.739-4.5088c-0.11982-2.8016-0.27693-3.961-0.63597-4.6929-1.0285-2.0965-3.7031-2.9717-7.3008-2.3891l-2.1719 0.35175-0.14348 10.451h10.411zm31.828 7.0282c0-6.2823 0.07326-8.0686 0.33073-8.0645 0.1819 3e-3 1.069 0.11211 1.9713 0.24264 1.2406 0.17946 1.9501 0.14314 2.9104-0.14895 0.69843-0.21245 2.4307-0.45868 3.8496-0.54719l2.5797-0.16092v1.6096l-1.9182 0.0987c-3.1926 0.16421-4.8427 1.373-5.2492 3.8454-0.11514 0.70021-0.21644 3.5055-0.22512 6.234l-0.01577 4.9609h-4.2333zm47.625 0.0426v-8.0272l1.6132 0.24416c1.2945 0.19593 1.9871 0.14831 3.5057-0.24105 2.7097-0.69475 7.8783-0.63649 10.178 0.11472 2.2622 0.73902 3.3839 1.5546 4.088 2.9719 0.54846 1.1042 0.59804 1.6179 0.68305 7.0776l0.0917 5.887h-4.5126l-0.0843-5.887c-0.0967-6.7499-0.22466-7.208-2.3468-8.4005-1.0393-0.58402-1.4714-0.65835-3.6906-0.63486-1.7982 0.019-2.89 0.17196-3.8365 0.53733l-1.3229 0.51071-0.141 13.874h-4.2245zm50.271 0.88343v-7.1438h-1.4552c-1.4405 0-1.4552-8e-3 -1.4552-0.79375 0-0.78574 0.0147-0.79375 1.4552-0.79375h1.4552v-7.715l0.7276 0.14265c0.40019 0.0785 1.4122 0.22069 2.249 0.31609l1.5214 0.17345v7.0828h4.7625v1.5875h-4.7625v14.288h-4.4979zm-68.985-17.91c0.25743-0.0671 0.61462-0.0627 0.79375 0.01 0.17913 0.0725-0.0315 0.12736-0.46806 0.12197-0.43656-5e-3 -0.58312-0.0647-0.32569-0.13177z" fill="#65ab60"/>
  <path d="m124.26 154.38c0-3.4108 0.0259-3.582 0.59531-3.9391 1.4268-0.89464 4.43-0.68699 5.2821 0.36521 0.32216 0.39784 0.47263 1.0343 0.47263 1.9992 0 2.1055-0.91662 2.7591-3.8695 2.7591h-1.1576v1.1906c0 1.0936-0.0539 1.1906-0.66145 1.1906h-0.66146zm4.5086 0.24877c0.39167-0.35446 0.51843-0.81496 0.51843-1.8834 0-1.9137-0.59501-2.532-2.329-2.4203l-1.2428 0.0801-0.078 2.0933c-0.0429 1.1513-0.0111 2.2679 0.0708 2.4813 0.20327 0.52972 2.3609 0.28233 3.0606-0.35093zm3.9715 2.9394c-0.76837-0.42553-1.0281-0.99687-1.0532-2.3172-0.0432-2.2665 1.0902-3.0504 4.0258-2.7842 1.8409 0.16693 2.4464 0.63677 2.7134 2.1055l0.18032 0.99218h-2.8076c-3.1102 0-3.4169 0.20851-2.1581 1.4672 0.75129 0.75129 2.2477 0.86515 3.3193 0.25256 0.95876-0.54809 1.2932-0.46472 0.566 0.14109-0.48645 0.40525-1.0132 0.51829-2.3812 0.51099-0.96615-5e-3 -2.0482-0.17085-2.4046-0.3682zm4.3243-3.2604c-0.23722-1.0142-0.65125-1.3822-1.757-1.5617-0.79083-0.12834-1.0711-0.0382-1.6353 0.52601-0.37449 0.3745-0.68089 0.92444-0.68089 1.2221 0 0.5002 0.16067 0.54119 2.1217 0.54119h2.1217zm2.8059 1.023v-2.615l1.7406-0.1864c1.8847-0.20183 2.5698-0.0479 1.0531 0.23667-1.2231 0.22945-1.4708 0.76467-1.4708 3.178 0 1.9588-0.0142 2.0018-0.66146 2.0018-0.66094 0-0.66146-2e-3 -0.66146-2.615zm6.1689 2.3528c-0.87282-0.35799-1.1418-1.1024-1.1418-3.16 0-1.8177 0.0183-1.8695 0.66145-1.8695 0.64676 0 0.66146 0.0441 0.66146 1.9844 0 2.313 0.46216 3.0452 1.9182 3.0391 2.0036-8e-3 2.0505-0.0696 2.0505-2.6731 0-2.3307 6e-3 -2.3504 0.66146-2.3504 0.66053 0 0.66146 4e-3 0.66146 2.5912v2.5912l-2.4474 0.042c-1.3461 0.0231-2.7075-0.0647-3.0254-0.19505zm11.916-5.3e-4c-0.61504-0.24819-1.0748-0.79556-0.66824-0.79556 0.13747 0 0.59098 0.17786 1.0078 0.39525 1.7777 0.92712 4.0591 0.14158 3.7035-1.2752-0.13918-0.55454-0.61266-0.91631-2.2227-1.6983-1.3994-0.67965-2.1512-1.2158-2.3793-1.6968-0.74043-1.5614 0.67421-2.7355 3.251-2.6982 1.301 0.0188 2.9626 0.60351 2.3219 0.81706-0.17344 0.0578-0.55225-0.0217-0.84179-0.17662-0.85686-0.45858-2.5511-0.33773-3.2439 0.23138-0.58761 0.48272-0.60101 0.55629-0.22618 1.2415 0.27564 0.50387 0.88729 0.91574 1.9844 1.3362 2.896 1.11 3.722 3.149 1.6993 4.195-0.81393 0.42089-3.4645 0.496-4.3858 0.12427zm6.786-3.4093v-3.6721l0.7276-0.28014c1.3413-0.51641 2.3061-0.58237 3.6311-0.24822 1.7886 0.45104 1.9825 0.91592 1.9874 4.7636l4e-3 3.1088h-0.66146c-0.63772 0-0.66146-0.0617-0.66146-1.7198v-1.7198h-3.7042v1.7198c0 1.6581-0.0237 1.7198-0.66145 1.7198h-0.66146zm4.9733-1.6552c-0.14252-1.9703-0.58417-2.4051-2.3274-2.2912l-1.1906 0.0778-0.1554 3.8365h3.791zm3.7111 4.9214c-0.59264-0.32181-0.73874-0.62778-0.8943-1.8729-0.2166-1.7336 0.0225-4.5279 0.42934-5.0182 0.66018-0.79546 4.7374-1.0012 5.463-0.27561 0.32994 0.32994-0.15823 0.46363-0.67772 0.18561-0.79963-0.42795-2.8443-0.3544-3.3181 0.11936-0.55949 0.55949-0.76943 1.9047-0.64392 4.1261 0.0891 1.5766 0.20608 1.963 0.72053 2.3796 0.72942 0.59065 2.2599 0.63867 3.2014 0.10046 0.76656-0.43821 1.0583-0.48639 1.0583-0.17477 0 0.81146-4.0374 1.1369-5.3386 0.43039zm-25.142-6.7362c0.24789-0.43565 0.65354-0.79283 0.90143-0.79375 0.42456-2e-3 0.42456 0.0443 0 0.7904-0.24789 0.43564-0.65354 0.79283-0.90143 0.79375-0.42456 2e-3 -0.42456-0.0443 0-0.7904zm-85.407-0.12893c0-0.50349 0.16951-0.69121 0.7276-0.80578 3.1124-0.63891 4.4282-1.6925 4.6891-3.7546 0.08807-0.69601 0.2148-1.6067 0.28163-2.0238 0.10924-0.68177 0.06145-0.74091-0.47333-0.58572-3.2089 0.93123-8.3429 0.76901-11.342-0.35838-2.2562-0.84801-3.2823-1.9911-3.6422-4.0575-0.37531-2.1552-0.37494-4.5833 0.0011-6.7422 0.36249-2.0816 1.336-3.1867 3.5306-4.0078 6.1466-2.2998 14.612-0.63883 15.776 3.0953 0.16811 0.53921 0.36326 3.4814 0.43433 6.5484 0.14042 6.0594-0.13508 8.9281-0.99032 10.312-0.95994 1.5532-4.7642 3.0193-7.8676 3.032-1.022 4e-3 -1.1245-0.0552-1.1245-0.65183zm3.7223-8.4987c2.2854-0.67408 2.1984-0.44484 2.0154-5.3136-0.17766-4.726-0.41568-5.651-1.7412-6.7663-2.564-2.1574-7.759-1.4419-9.1409 1.259-0.46094 0.90088-0.54103 1.5504-0.53835 4.3656 4e-3 4.1986 0.35735 5.0718 2.4891 6.1516 1.1942 0.60489 1.7774 0.7276 3.4577 0.7276 1.1117 0 2.6679-0.19074 3.4583-0.42387zm36.249 6.6448c-2.9648-0.67295-5.4161-2.0306-7.5336-4.1726-3.1298-3.1658-4.3946-6.284-4.3881-10.818 0.0083-5.7908 3.2358-10.807 8.5954-13.358 1.0186-0.48498 2.2688-0.94978 2.7781-1.0329 0.72743-0.11871 0.62315-0.037-0.48621 0.38081-2.2262 0.83849-3.7542 1.8391-5.4669 3.5799-2.7715 2.817-4.1965 6.2821-4.1965 10.204 0 4.0096 1.4458 7.4469 4.3403 10.319 5.7498 5.7048 14.679 5.6625 20.468-0.097 1.0043-0.99926 1.5707-1.4584 1.2588-1.0204-0.96794 1.3593-3.0127 3.2324-4.5368 4.1559-3.1389 1.9019-7.4127 2.6356-10.832 1.8594zm-2.3311-4.411c-1.9053-0.95223-3.9298-2.7916-5.0965-4.6304-2.3163-3.6507-2.46-8.9521-0.34768-12.833 0.90399-1.6609 3.5641-4.1986 5.3494-5.1034 5.6757-2.8761 12.671-1.0819 16.161 4.1454 0.98528 1.4755 2.1388 4.466 2.1062 5.4607-8e-3 0.23934-0.23263-0.24803-0.49956-1.083-1.772-5.5432-7.574-9.1652-13.151-8.2099-6.7715 1.1599-11.365 7.8303-9.8672 14.328 0.72447 3.1424 3.4716 6.6412 6.32 8.0492 0.79256 0.39179 1.2688 0.70986 1.0583 0.70684-0.21048-3e-3 -1.1255-0.37672-2.0333-0.83045zm6.2808 0.0723c-5.0511-1.6406-8.4046-7.5038-7.4559-13.036 0.48548-2.831 1.5863-4.8964 3.6274-6.8058 0.95217-0.89071 1.9011-1.6195 2.1087-1.6195 0.63087 0 3.6864 3.0538 4.4389 4.4364 0.8516 1.5647 1.505 4.1906 1.5103 6.0697 4e-3 1.3507-0.0191 1.3914-1.1638 2.0622-1.2319 0.72192-3.0451 2.534-3.6016 3.5993-0.18201 0.34842 0.14924 0.0937 0.73612-0.56606 2.2704-2.5524 5.8956-3.5558 9.0551-2.5064l1.3859 0.46034-0.17358 1.0936c-0.42745 2.693-2.2113 5.1319-4.613 6.3071-1.3093 0.64063-4.5709 0.92203-5.8545 0.50511zm47.981-0.56614c-2.1846-0.39409-4.2889-1.2975-5.2419-2.2505-1.2308-1.2308-1.4644-2.6283-1.4644-8.7591v-5.1696l1.0583 0.15555c0.58208 0.0855 1.5346 0.22554 2.1167 0.31109l1.0583 0.15555 6e-3 4.8054c9e-3 6.7321 0.34516 7.8156 2.7717 8.9355 1.3934 0.64311 4.9778 0.64905 7.0115 0.0116l1.4552-0.45612 0.0706-6.8038 0.0706-6.8037h4.2244v15.61l-0.72761-0.0232c-0.40018-0.0128-1.3229-0.10529-2.0505-0.20564-0.84578-0.11666-1.7523-0.0558-2.5135 0.16862-1.5298 0.4511-6.0843 0.63563-7.8458 0.31787zm-124.71-10.582v-10.589l1.2568-0.79719c1.8552-1.1768 3.5576-1.6156 6.8533-1.7665 3.434-0.15725 6.0494 0.31029 8.1618 1.459 1.0265 0.55822 1.4711 1.0158 1.9844 2.0423l0.66146 1.3229 0.08664 9.4588 0.08663 9.4589h-4.2624l-0.07211-4.8286-0.07211-4.8286-10.186-0.1438v9.801h-4.4979zm14.739-4.5088c-0.11982-2.8016-0.27693-3.961-0.63597-4.6929-1.0285-2.0965-3.7031-2.9717-7.3008-2.3891l-2.1719 0.35175-0.14348 10.451h10.411zm31.828 7.0282c0-6.2823 0.07326-8.0686 0.33073-8.0645 0.1819 3e-3 1.069 0.11211 1.9713 0.24264 1.2406 0.17946 1.9501 0.14314 2.9104-0.14895 0.69843-0.21245 2.4307-0.45868 3.8496-0.54719l2.5797-0.16092v1.6096l-1.9182 0.0987c-3.1926 0.16421-4.8427 1.373-5.2492 3.8454-0.11514 0.70021-0.21644 3.5055-0.22512 6.234l-0.01577 4.9609h-4.2333zm47.625 0.11627v-7.9535l1.7859 0.17439c1.2317 0.12027 2.2786 0.0513 3.3734-0.22237 4.9558-1.2386 11.057-0.41628 13.268 1.7884 1.2496 1.2457 1.4572 2.3484 1.6085 8.5443l0.13731 5.6224h-4.5628v-5.697c0-6.2892-0.12109-6.9191-1.5636-8.1328-0.46297-0.38956-1.3424-0.84429-1.9542-1.0105-1.4185-0.38534-4.9458-0.1584-6.6026 0.42481l-1.2568 0.4424v13.973h-4.2333zm50.271 0.80977v-7.1438h-1.3229c-1.2935 0-1.3229-0.0176-1.3229-0.79375 0-0.77611 0.0294-0.79375 1.3229-0.79375h1.3229v-7.5616l4.2333 0.49304v7.0685h4.7625v1.5875h-4.7625v14.288h-4.2333zm-70.974-17.638c0.1819-0.0734 0.47956-0.0734 0.66146 0s0.0331 0.13345-0.33073 0.13345c-0.3638 0-0.51263-0.0601-0.33073-0.13345z" fill="#8bbc22"/>
  <path d="m124.26 154.38c0-3.4108 0.0259-3.582 0.59531-3.9391 1.4268-0.89464 4.43-0.68699 5.2821 0.36521 0.32216 0.39784 0.47263 1.0343 0.47263 1.9992 0 2.1055-0.91662 2.7591-3.8695 2.7591h-1.1576v1.1906c0 1.0936-0.0539 1.1906-0.66145 1.1906h-0.66146zm4.5086 0.24877c0.39167-0.35446 0.51843-0.81496 0.51843-1.8834 0-1.9137-0.59501-2.532-2.329-2.4203l-1.2428 0.0801-0.078 2.0933c-0.0429 1.1513-0.0111 2.2679 0.0708 2.4813 0.20327 0.52972 2.3609 0.28233 3.0606-0.35093zm3.9715 2.9394c-0.76837-0.42553-1.0281-0.99687-1.0532-2.3172-0.0432-2.2665 1.0902-3.0504 4.0258-2.7842 1.8409 0.16693 2.4464 0.63677 2.7134 2.1055l0.18032 0.99218h-2.8076c-3.1102 0-3.4169 0.20851-2.1581 1.4672 0.75129 0.75129 2.2477 0.86515 3.3193 0.25256 0.95876-0.54809 1.2932-0.46472 0.566 0.14109-0.48645 0.40525-1.0132 0.51829-2.3812 0.51099-0.96615-5e-3 -2.0482-0.17085-2.4046-0.3682zm4.3243-3.2604c-0.23722-1.0142-0.65125-1.3822-1.757-1.5617-0.79083-0.12834-1.0711-0.0382-1.6353 0.52601-0.37449 0.3745-0.68089 0.92444-0.68089 1.2221 0 0.5002 0.16067 0.54119 2.1217 0.54119h2.1217zm2.8059 1.023v-2.615l1.7406-0.1864c1.8847-0.20183 2.5698-0.0479 1.0531 0.23667-1.2231 0.22945-1.4708 0.76467-1.4708 3.178 0 1.9588-0.0142 2.0018-0.66146 2.0018-0.66094 0-0.66146-2e-3 -0.66146-2.615zm6.1689 2.3528c-0.87282-0.35799-1.1418-1.1024-1.1418-3.16 0-1.8177 0.0183-1.8695 0.66145-1.8695 0.64676 0 0.66146 0.0441 0.66146 1.9844 0 2.313 0.46216 3.0452 1.9182 3.0391 2.0036-8e-3 2.0505-0.0696 2.0505-2.6731 0-2.3307 6e-3 -2.3504 0.66146-2.3504 0.66053 0 0.66146 4e-3 0.66146 2.5912v2.5912l-2.4474 0.042c-1.3461 0.0231-2.7075-0.0647-3.0254-0.19505zm11.916-5.3e-4c-0.61504-0.24819-1.0748-0.79556-0.66824-0.79556 0.13747 0 0.59098 0.17786 1.0078 0.39525 1.7777 0.92712 4.0591 0.14158 3.7035-1.2752-0.13918-0.55454-0.61266-0.91631-2.2227-1.6983-1.3994-0.67965-2.1512-1.2158-2.3793-1.6968-0.74043-1.5614 0.67421-2.7355 3.251-2.6982 1.301 0.0188 2.9626 0.60351 2.3219 0.81706-0.17344 0.0578-0.55225-0.0217-0.84179-0.17662-0.85686-0.45858-2.5511-0.33773-3.2439 0.23138-0.58761 0.48272-0.60101 0.55629-0.22618 1.2415 0.27564 0.50387 0.88729 0.91574 1.9844 1.3362 2.896 1.11 3.722 3.149 1.6993 4.195-0.81393 0.42089-3.4645 0.496-4.3858 0.12427zm6.786-3.4093v-3.6721l0.7276-0.28014c1.3413-0.51641 2.3061-0.58237 3.6311-0.24822 1.7886 0.45104 1.9825 0.91592 1.9874 4.7636l4e-3 3.1088h-0.66146c-0.63772 0-0.66146-0.0617-0.66146-1.7198v-1.7198h-3.7042v1.7198c0 1.6581-0.0237 1.7198-0.66145 1.7198h-0.66146zm4.9733-1.6552c-0.14252-1.9703-0.58417-2.4051-2.3274-2.2912l-1.1906 0.0778-0.1554 3.8365h3.791zm3.7111 4.9214c-0.59264-0.32181-0.73874-0.62778-0.8943-1.8729-0.2166-1.7336 0.0225-4.5279 0.42934-5.0182 0.66018-0.79546 4.7374-1.0012 5.463-0.27561 0.32994 0.32994-0.15823 0.46363-0.67772 0.18561-0.79963-0.42795-2.8443-0.3544-3.3181 0.11936-0.55949 0.55949-0.76943 1.9047-0.64392 4.1261 0.0891 1.5766 0.20608 1.963 0.72053 2.3796 0.72942 0.59065 2.2599 0.63867 3.2014 0.10046 0.76656-0.43821 1.0583-0.48639 1.0583-0.17477 0 0.81146-4.0374 1.1369-5.3386 0.43039zm-25.142-6.7362c0.24789-0.43565 0.65354-0.79283 0.90143-0.79375 0.42456-2e-3 0.42456 0.0443 0 0.7904-0.24789 0.43564-0.65354 0.79283-0.90143 0.79375-0.42456 2e-3 -0.42456-0.0443 0-0.7904zm-85.407-0.12893c0-0.50349 0.16951-0.69121 0.7276-0.80578 3.1124-0.63891 4.4282-1.6925 4.6891-3.7546 0.08807-0.69601 0.2148-1.6067 0.28163-2.0238 0.10924-0.68177 0.06145-0.74091-0.47333-0.58572-3.2089 0.93123-8.3429 0.76901-11.342-0.35838-2.2562-0.84801-3.2823-1.9911-3.6422-4.0575-0.37531-2.1552-0.37494-4.5833 0.0011-6.7422 0.36249-2.0816 1.336-3.1867 3.5306-4.0078 6.1466-2.2998 14.612-0.63883 15.776 3.0953 0.16811 0.53921 0.36326 3.4814 0.43433 6.5484 0.14042 6.0594-0.13508 8.9281-0.99032 10.312-0.95994 1.5532-4.7642 3.0193-7.8676 3.032-1.022 4e-3 -1.1245-0.0552-1.1245-0.65183zm3.7223-8.4987c2.2854-0.67408 2.1984-0.44484 2.0154-5.3136-0.17766-4.726-0.41568-5.651-1.7412-6.7663-2.564-2.1574-7.759-1.4419-9.1409 1.259-0.46094 0.90088-0.54103 1.5504-0.53835 4.3656 4e-3 4.1986 0.35735 5.0718 2.4891 6.1516 1.1942 0.60489 1.7774 0.7276 3.4577 0.7276 1.1117 0 2.6679-0.19074 3.4583-0.42387zm36.249 6.6448c-2.9648-0.67295-5.4161-2.0306-7.5336-4.1726-3.1298-3.1658-4.3946-6.284-4.3881-10.818 0.0083-5.7908 3.2358-10.807 8.5954-13.358 1.0186-0.48498 2.2688-0.94978 2.7781-1.0329 0.72743-0.11871 0.62315-0.037-0.48621 0.38081-2.2262 0.83849-3.7542 1.8391-5.4669 3.5799-2.7715 2.817-4.1965 6.2821-4.1965 10.204 0 4.0096 1.4458 7.4469 4.3403 10.319 5.7498 5.7048 14.679 5.6625 20.468-0.097 1.0043-0.99926 1.5707-1.4584 1.2588-1.0204-0.96794 1.3593-3.0127 3.2324-4.5368 4.1559-3.1389 1.9019-7.4127 2.6356-10.832 1.8594zm-2.3311-4.411c-1.9053-0.95223-3.9298-2.7916-5.0965-4.6304-2.3163-3.6507-2.46-8.9521-0.34768-12.833 0.90399-1.6609 3.5641-4.1986 5.3494-5.1034 5.6757-2.8761 12.671-1.0819 16.161 4.1454 0.98528 1.4755 2.1388 4.466 2.1062 5.4607-8e-3 0.23934-0.23263-0.24803-0.49956-1.083-1.772-5.5432-7.574-9.1652-13.151-8.2099-6.7715 1.1599-11.365 7.8303-9.8672 14.328 0.72447 3.1424 3.4716 6.6412 6.32 8.0492 0.79256 0.39179 1.2688 0.70986 1.0583 0.70684-0.21048-3e-3 -1.1255-0.37672-2.0333-0.83045zm5.9304-0.0641c-0.55653-0.20572-1.0718-0.43392-1.145-0.50711-0.0732-0.0732 0.67981-0.60551 1.6733-1.1829 7.5212-4.3712 10.226-5.8792 10.341-5.7646 0.20437 0.20437-0.43046 2.4879-1.0044 3.6129-0.68348 1.3398-2.1562 2.7372-3.6599 3.473-1.5182 0.74288-4.6838 0.93099-6.2049 0.36873zm48.332-0.42976c-2.1846-0.39409-4.2889-1.2975-5.2419-2.2505-1.2308-1.2308-1.4644-2.6283-1.4644-8.7591v-5.1696l1.0583 0.15555c0.58208 0.0855 1.5346 0.22554 2.1167 0.31109l1.0583 0.15555 6e-3 4.8054c9e-3 6.7321 0.34516 7.8156 2.7717 8.9355 1.3934 0.64311 4.9778 0.64905 7.0115 0.0116l1.4552-0.45612 0.0706-6.8038 0.0706-6.8037h4.2244v15.61l-0.72761-0.0232c-0.40018-0.0128-1.3229-0.10529-2.0505-0.20564-0.84578-0.11666-1.7523-0.0558-2.5135 0.16862-1.5298 0.4511-6.0843 0.63563-7.8458 0.31787zm-124.71-10.582v-10.589l1.2568-0.79719c1.8552-1.1768 3.5576-1.6156 6.8533-1.7665 3.434-0.15725 6.0494 0.31029 8.1618 1.459 1.0265 0.55822 1.4711 1.0158 1.9844 2.0423l0.66146 1.3229 0.08664 9.4588 0.08663 9.4589h-4.2624l-0.07211-4.8286-0.07211-4.8286-10.186-0.1438v9.801h-4.4979zm14.739-4.5088c-0.11982-2.8016-0.27693-3.961-0.63597-4.6929-1.0285-2.0965-3.7031-2.9717-7.3008-2.3891l-2.1719 0.35175-0.14348 10.451h10.411zm31.828 7.0282c0-6.2823 0.07326-8.0686 0.33073-8.0645 0.1819 3e-3 1.069 0.11211 1.9713 0.24264 1.2406 0.17946 1.9501 0.14314 2.9104-0.14895 0.69843-0.21245 2.4307-0.45868 3.8496-0.54719l2.5797-0.16092v1.6096l-1.9182 0.0987c-3.1926 0.16421-4.8427 1.373-5.2492 3.8454-0.11514 0.70021-0.21644 3.5055-0.22512 6.234l-0.01577 4.9609h-4.2333zm47.625 0.11627v-7.9535l1.7859 0.17439c1.2317 0.12027 2.2786 0.0513 3.3734-0.22237 4.9558-1.2386 11.057-0.41628 13.268 1.7884 1.2496 1.2457 1.4572 2.3484 1.6085 8.5443l0.13731 5.6224h-4.5628v-5.697c0-6.2892-0.12109-6.9191-1.5636-8.1328-0.46297-0.38956-1.3424-0.84429-1.9542-1.0105-1.4185-0.38534-4.9458-0.1584-6.6026 0.42481l-1.2568 0.4424v13.973h-4.2333zm50.271 0.80977v-7.1438h-1.3229c-1.2935 0-1.3229-0.0176-1.3229-0.79375 0-0.77611 0.0294-0.79375 1.3229-0.79375h1.3229v-7.5616l4.2333 0.49304v7.0685h4.7625v1.5875h-4.7625v14.288h-4.2333zm-69.558-3.7703c-0.0172-6.2485 0.0679-9.988 0.22736-9.988 0.53236 0 3.6403 3.1944 4.3163 4.4364 0.8516 1.5647 1.505 4.1906 1.5103 6.0697 4e-3 1.3507-0.0191 1.3914-1.1638 2.0622-1.3887 0.81381-3.1847 2.6964-3.7201 3.8994-0.21115 0.47439-0.55457 1.4578-0.76317 2.1854-0.34702 1.2104-0.38162 0.4734-0.40683-8.6651zm-1.4166-13.867c0.1819-0.0734 0.47956-0.0734 0.66146 0s0.0331 0.13345-0.33073 0.13345c-0.3638 0-0.51263-0.0601-0.33073-0.13345z" fill="#3d9636"/>
  <path d="m124.26 154.38c0-3.4108 0.0259-3.582 0.59531-3.9391 1.4268-0.89464 4.43-0.68699 5.2821 0.36521 0.32216 0.39784 0.47263 1.0343 0.47263 1.9992 0 2.1055-0.91662 2.7591-3.8695 2.7591h-1.1576v1.1906c0 1.0936-0.0539 1.1906-0.66145 1.1906h-0.66146zm4.5086 0.24877c0.39167-0.35446 0.51843-0.81496 0.51843-1.8834 0-1.9137-0.59501-2.532-2.329-2.4203l-1.2428 0.0801-0.078 2.0933c-0.0429 1.1513-0.0111 2.2679 0.0708 2.4813 0.20327 0.52972 2.3609 0.28233 3.0606-0.35093zm3.9715 2.9394c-0.76837-0.42553-1.0281-0.99687-1.0532-2.3172-0.0432-2.2665 1.0902-3.0504 4.0258-2.7842 1.8409 0.16693 2.4464 0.63677 2.7134 2.1055l0.18032 0.99218h-2.8076c-3.1102 0-3.4169 0.20851-2.1581 1.4672 0.75129 0.75129 2.2477 0.86515 3.3193 0.25256 0.95876-0.54809 1.2932-0.46472 0.566 0.14109-0.48645 0.40525-1.0132 0.51829-2.3812 0.51099-0.96615-5e-3 -2.0482-0.17085-2.4046-0.3682zm4.3243-3.2604c-0.23722-1.0142-0.65125-1.3822-1.757-1.5617-0.79083-0.12834-1.0711-0.0382-1.6353 0.52601-0.37449 0.3745-0.68089 0.92444-0.68089 1.2221 0 0.5002 0.16067 0.54119 2.1217 0.54119h2.1217zm2.8059 1.023v-2.615l1.7406-0.1864c1.8847-0.20183 2.5698-0.0479 1.0531 0.23667-1.2231 0.22945-1.4708 0.76467-1.4708 3.178 0 1.9588-0.0142 2.0018-0.66146 2.0018-0.66094 0-0.66146-2e-3 -0.66146-2.615zm6.1689 2.3528c-0.87282-0.35799-1.1418-1.1024-1.1418-3.16 0-1.8177 0.0183-1.8695 0.66145-1.8695 0.64676 0 0.66146 0.0441 0.66146 1.9844 0 2.313 0.46216 3.0452 1.9182 3.0391 2.0036-8e-3 2.0505-0.0696 2.0505-2.6731 0-2.3307 6e-3 -2.3504 0.66146-2.3504 0.66053 0 0.66146 4e-3 0.66146 2.5912v2.5912l-2.4474 0.042c-1.3461 0.0231-2.7075-0.0647-3.0254-0.19505zm11.916-5.3e-4c-0.61504-0.24819-1.0748-0.79556-0.66824-0.79556 0.13747 0 0.59098 0.17786 1.0078 0.39525 1.7777 0.92712 4.0591 0.14158 3.7035-1.2752-0.13918-0.55454-0.61266-0.91631-2.2227-1.6983-1.3994-0.67965-2.1512-1.2158-2.3793-1.6968-0.74043-1.5614 0.67421-2.7355 3.251-2.6982 1.301 0.0188 2.9626 0.60351 2.3219 0.81706-0.17344 0.0578-0.55225-0.0217-0.84179-0.17662-0.85686-0.45858-2.5511-0.33773-3.2439 0.23138-0.58761 0.48272-0.60101 0.55629-0.22618 1.2415 0.27564 0.50387 0.88729 0.91574 1.9844 1.3362 2.896 1.11 3.722 3.149 1.6993 4.195-0.81393 0.42089-3.4645 0.496-4.3858 0.12427zm6.786-3.4093v-3.6721l0.7276-0.28014c1.3413-0.51641 2.3061-0.58237 3.6311-0.24822 1.7886 0.45104 1.9825 0.91592 1.9874 4.7636l4e-3 3.1088h-0.66146c-0.63772 0-0.66146-0.0617-0.66146-1.7198v-1.7198h-3.7042v1.7198c0 1.6581-0.0237 1.7198-0.66145 1.7198h-0.66146zm4.9733-1.6552c-0.14252-1.9703-0.58417-2.4051-2.3274-2.2912l-1.1906 0.0778-0.1554 3.8365h3.791zm3.7111 4.9214c-0.59264-0.32181-0.73874-0.62778-0.8943-1.8729-0.2166-1.7336 0.0225-4.5279 0.42934-5.0182 0.66018-0.79546 4.7374-1.0012 5.463-0.27561 0.32994 0.32994-0.15823 0.46363-0.67772 0.18561-0.79963-0.42795-2.8443-0.3544-3.3181 0.11936-0.55949 0.55949-0.76943 1.9047-0.64392 4.1261 0.0891 1.5766 0.20608 1.963 0.72053 2.3796 0.72942 0.59065 2.2599 0.63867 3.2014 0.10046 0.76656-0.43821 1.0583-0.48639 1.0583-0.17477 0 0.81146-4.0374 1.1369-5.3386 0.43039zm-25.142-6.7362c0.24789-0.43565 0.65354-0.79283 0.90143-0.79375 0.42456-2e-3 0.42456 0.0443 0 0.7904-0.24789 0.43564-0.65354 0.79283-0.90143 0.79375-0.42456 2e-3 -0.42456-0.0443 0-0.7904zm-85.407-0.12893c0-0.50349 0.16951-0.69121 0.7276-0.80578 3.1124-0.63891 4.4282-1.6925 4.6891-3.7546 0.08807-0.69601 0.2148-1.6067 0.28163-2.0238 0.10924-0.68177 0.06145-0.74091-0.47333-0.58572-3.2089 0.93123-8.3429 0.76901-11.342-0.35838-2.2562-0.84801-3.2823-1.9911-3.6422-4.0575-0.37531-2.1552-0.37494-4.5833 0.0011-6.7422 0.36249-2.0816 1.336-3.1867 3.5306-4.0078 6.1466-2.2998 14.612-0.63883 15.776 3.0953 0.16811 0.53921 0.36326 3.4814 0.43433 6.5484 0.14042 6.0594-0.13508 8.9281-0.99032 10.312-0.95994 1.5532-4.7642 3.0193-7.8676 3.032-1.022 4e-3 -1.1245-0.0552-1.1245-0.65183zm3.7223-8.4987c2.2854-0.67408 2.1984-0.44484 2.0154-5.3136-0.17766-4.726-0.41568-5.651-1.7412-6.7663-2.564-2.1574-7.759-1.4419-9.1409 1.259-0.46094 0.90088-0.54103 1.5504-0.53835 4.3656 4e-3 4.1986 0.35735 5.0718 2.4891 6.1516 1.1942 0.60489 1.7774 0.7276 3.4577 0.7276 1.1117 0 2.6679-0.19074 3.4583-0.42387zm33.918 2.2338c-1.9053-0.95223-3.9298-2.7916-5.0965-4.6304-2.3163-3.6507-2.46-8.9521-0.34768-12.833 0.90399-1.6609 3.5641-4.1986 5.3494-5.1034 5.6757-2.8761 12.671-1.0819 16.161 4.1454 0.98528 1.4755 2.1388 4.466 2.1062 5.4607-8e-3 0.23934-0.23263-0.24803-0.49956-1.083-1.772-5.5432-7.574-9.1652-13.151-8.2099-6.7715 1.1599-11.365 7.8303-9.8672 14.328 0.72447 3.1424 3.4716 6.6412 6.32 8.0492 0.79256 0.39179 1.2688 0.70986 1.0583 0.70684-0.21048-3e-3 -1.1255-0.37672-2.0333-0.83045zm-70.448-11.076v-10.589l1.2568-0.79719c1.8552-1.1768 3.5576-1.6156 6.8533-1.7665 3.434-0.15725 6.0494 0.31029 8.1618 1.459 1.0265 0.55822 1.4711 1.0158 1.9844 2.0423l0.66146 1.3229 0.08664 9.4588 0.08663 9.4589h-4.2624l-0.07211-4.8286-0.07211-4.8286-10.186-0.1438v9.801h-4.4979zm14.739-4.5088c-0.11982-2.8016-0.27693-3.961-0.63597-4.6929-1.0285-2.0965-3.7031-2.9717-7.3008-2.3891l-2.1719 0.35175-0.14348 10.451h10.411zm31.828 7.0282c0-6.2823 0.07326-8.0686 0.33073-8.0645 0.1819 3e-3 1.069 0.11211 1.9713 0.24264 1.2406 0.17946 1.9501 0.14314 2.9104-0.14895 0.69843-0.21245 2.4307-0.45868 3.8496-0.54719l2.5797-0.16092v1.6096l-1.9182 0.0987c-3.1926 0.16421-4.8427 1.373-5.2492 3.8454-0.11514 0.70021-0.21644 3.5055-0.22512 6.234l-0.01577 4.9609h-4.2333z" fill="#006991"/>
 </g>
</svg>
